{"title":"Like Water for Chocolate 1992 480p WEB-DL x264 AAC","uid":12753709,"size":1012287632,"categoryP":"video","categoryS":"movies","magnet":"?xt=urn:btih:bce9b1f971a4d7ee726eea50d2978959a7b51983&amp;dn=Like+Water+for+Chocolate+1992+480p+WEB-DL+x264+AAC&amp;tr=udp%3A%2F%2Ftracker.leechers-paradise.org%3A6969&amp;tr=udp%3A%2F%2Fzer0day.ch%3A1337&amp;tr=udp%3A%2F%2Fopen.demonii.com%3A1337&amp;tr=udp%3A%2F%2Ftracker.coppersurfer.tk%3A6969&amp;tr=udp%3A%2F%2Fexodus.desync.com%3A6969","seeders":3,"leechers":2,"uploader":"avalunch","files":7,"time":1447418665,"description":"NOTE: Has hardcoded English subtitles since film is in Spanish.\r\n\r\nLike Water for Chocolate (1992)\r\n\r\nLike Water for Chocolate is a film adaptation of the same name written by Laura Esquivel. It is a story of magical realism set in Mexico, and tells of the story of Tita, the youngest daughter of the de la Garza family. Tita is not permitted by her mother Mama Elena to marry due to a family tradition; however, she falls in love with Pedro Muzquiz, and their passionate love for each other is tested to its limits - as Mama Elena tries to separate them by making Pedro marry Rosaura. Despite this, Tita and Pedro's love for each other still stands, as Tita eventually stands up for herself against her mother...\r\n\r\nSOURCE:\r\n\r\nLike Water for Chocolate 1992 720p WEB-DL AAC 2.0 H.264-HDStar\r\n\r\n* AAC audio stream from this reencode is the exact copy of the original, no transcoding\r\n\r\nWHY?\r\n\r\nFor the very few people who might need it and want to have a smaller-sized version of the film, since it's an adaptation of the acclaimed novel 'Like Water for Chocolate'.\r\n\r\n\r\nGeneral\r\nFormat : MPEG-4\r\nFormat profile : Base Media\r\nCodec ID : isom\r\nFile size : 963 MiB\r\nDuration : 1h 45mn\r\nOverall bit rate mode : Variable\r\nOverall bit rate : 1 277 Kbps\r\nEncoded date : UTC 2015-04-04 10:23:02\r\nTagged date : UTC 2015-04-04 10:23:02\r\n\r\nVideo\r\nID : 1\r\nFormat : AVC\r\nFormat/Info : Advanced Video Codec\r\nFormat profile :   \r\nFormat settings, CABAC : Yes\r\nFormat settings, ReFrames : 4 frames\r\nCodec ID : avc1\r\nCodec ID/Info : Advanced Video Coding\r\nDuration : 1h 45mn\r\nBit rate : 1 118 Kbps\r\nMaximum bit rate : 6 697 Kbps\r\nWidth : 856 pixels\r\nHeight : 480 pixels\r\nDisplay aspect ratio : 16:9\r\nFrame rate mode : Constant\r\nFrame rate : 23.976 fps\r\nColor space : YUV\r\nChroma subsampling : 4:2:0\r\nBit depth : 8 bits\r\nScan type : Progressive\r\nBits/(Pixel*Frame) : 0.113\r\nStream size : 843 MiB (88%)\r\nWriting library : x264 core 146 r2538 121396c\r\nEncoding settings : cabac=1 / ref=3 / deblock=1:-1:-1 / analyse=0x3:0x113 / me=tesa / subme=9 / psy=1 / psy_rd=1.00:0.15 / mixed_ref=1 / me_range=16 / chroma_me=1 / trellis=1 / 8x8dct=1 / cqm=0 / deadzone=21,11 / fast_pskip=1 / chroma_qp_offset=-3 / threads=3 / lookahead_threads=1 / sliced_threads=0 / nr=0 / decimate=1 / interlaced=0 / bluray_compat=0 / constrained_intra=0 / bframes=3 / b_pyramid=2 / b_adapt=2 / b_bias=0 / direct=3 / weightb=1 / open_gop=0 / weightp=2 / keyint=250 / keyint_min=23 / scenecut=40 / intra_refresh=0 / rc_lookahead=50 / rc=crf / mbtree=1 / crf=20.1 / qcomp=0.60 / qpmin=0 / qpmax=69 / qpstep=4 / ip_ratio=1.40 / aq=1:1.00\r\nLanguage : English\r\nTagged date : UTC 2015-04-04 10:26:00\r\n\r\nAudio\r\nID : 3\r\nFormat : AAC\r\nFormat/Info : Advanced Audio Codec\r\nFormat profile : LC\r\nCodec ID : 40\r\nDuration : 1h 45mn\r\nBit rate mode : Variable\r\nBit rate : 155 Kbps\r\nMaximum bit rate : 234 Kbps\r\nChannel(s) : 2 channels\r\nChannel positions : Front: L R\r\nSampling rate : 48.0 KHz\r\nCompression mode : Lossy\r\nStream size : 117 MiB (12%)\r\nTitle : 0   +50 git-7b8f8c3\r\nEncoded date : UTC 2015-04-04 10:25:32\r\nTagged date : UTC 2015-04-04 10:26:00\r\n\r\nMenu\r\nID : 2\r\nCodec ID : text\r\nDuration : 1h 45mn\r\nTagged date : UTC 2015-04-04 10:26:00\r\nSource duration : 6538000\r\nSource frame count : 19\r\nSource stream size : 295\r\nFrame count : 18\r\nStream size : 279\r\n00:00:00.000 : 1\r\n00:06:42.000 : 2\r\n00:19:34.000 : 3\r\n00:26:20.000 : 4\r\n00:27:48.000 : 5\r\n00:37:53.000 : 6\r\n00:44:45.000 : 7\r\n00:51:02.000 : 8\r\n00:53:34.000 : 9\r\n00:55:36.000 : 10\r\n00:57:48.000 : 11\r\n01:05:35.000 : 12\r\n01:12:45.000 : 13\r\n01:21:29.000 : 14\r\n01:24:34.000 : 15\r\n01:34:14.000 : 16\r\n01:36:17.000 : 17\r\n01:37:46.000 : 18\r\n01:43:22.000 : 19\r\nBit rate mode : VBR","torrent":{"xt":"urn:btih:bce9b1f971a4d7ee726eea50d2978959a7b51983","amp;dn":"Like+Water+for+Chocolate+1992+480p+WEB-DL+x264+AAC","amp;tr":["udp%3A%2F%2Ftracker.leechers-paradise.org%3A6969","udp%3A%2F%2Fzer0day.ch%3A1337","udp%3A%2F%2Fopen.demonii.com%3A1337","udp%3A%2F%2Ftracker.coppersurfer.tk%3A6969","udp%3A%2F%2Fexodus.desync.com%3A6969"],"infoHash":"bce9b1f971a4d7ee726eea50d2978959a7b51983","infoHashBuffer":{"type":"Buffer","data":[188,233,177,249,113,164,215,238,114,110,234,80,210,151,137,89,167,181,25,131]},"announce":[],"urlList":[]}}